#!OML:ASF F:\VICON\USERDATA\INSTALL\rory3\rory3.ASF
:FULLY-SPECIFIED
:DEGREES
71
root 0.50619637107271 17.360490557934973 25.91123065920459 1.2217493733747824 1.2422552386886967 0.13194100597344427
lfemur -10.198441338284635 0.809137848712036 -26.15791941224702
ltibia 43.055603479163075
lfoot -1.0895442723661903 -9.4622836332482
ltoes -11.905740229687078
rfemur -30.957417073315654 0.7010791142086323 24.346642259559637
rtibia 89.79439785833513
rfoot 3.4325441877394662 -4.382484090381212
rtoes -1.5869165058689472
lowerback 15.049296491247592 0.08016250828256588 -0.82493299984628
upperback -0.754873353597652 0.14726248437558676 0.614633627702277
thorax -9.215982573149706 0.2930285555829802 1.4349205732854677
lowerneck -20.212168214497254 -3.950484169732109 -2.4901630543896762
upperneck 12.666120374985605 -5.465740567890689 5.692873682351387
head 7.347820519282184 -2.4204184899969534 1.5200186474715143
lclavicle 2.9801515526439752e-15 1.1900897868484632e-16
lhumerus -42.264993354995426 -14.512407213094495 95.68175573648634
lradius 117.18845883684133
lwrist 34.29863457909728
lhand -20.808876121822305 2.7312758739588285
lfingers 7.125019999999999
lthumb 5.20698826959597 32.550227640315384
rclavicle 2.9801381671163078e-15 1.1900166246856291e-16
rhumerus -54.7178240686553 10.456420115955634 -99.70126116524013
rradius 109.0787140602034
rwrist -15.114018774033108
rhand -15.735093703767292 38.64261669395412
rfingers 7.125019999999999
rthumb 10.540140328757698 8.46216395426239
72
root 0.51834736823646 17.448486194319255 26.195140391119395 1.4156528743750583 0.5474026637677103 -0.016043777320788877
lfemur -9.018264084224725 1.0545346678200795 -25.84586695260641
ltibia 40.86303095708889
lfoot -0.3119401034482001 -8.82309039606479
ltoes -11.801327529791703
rfemur -32.765227531451636 1.2306160610996848 24.51870290900515
rtibia 83.33679770429647
rfoot 2.3966000445523274 -4.836054585564307
rtoes -1.2866816529842846
lowerback 14.726455613100983 -0.12701236430512164 -0.7796077645765962
upperback -0.8916415685915348 -0.24592708950673292 0.7435400962454921
thorax -9.200355826837187 0.25609988776382714 1.7044102373341443
lowerneck -20.192970124591675 -3.831640897127698 -2.5273414559377
upperneck 12.836025297459148 -5.245914115675289 5.618865012721019
head 7.369970700068372 -2.3677301218247395 1.5259001205807812
lclavicle 2.9801515526439752e-15 1.1900897868484632e-16
lhumerus -41.94095313876781 -14.512986273355406 95.59541086111558
lradius 117.06866320717901
lwrist 34.432738664896654
lhand -20.725131802654854 2.778387451907686
lfingers 7.125019999999999
lthumb 5.258430157121755 32.57190155083836
rclavicle 2.9801381671163078e-15 1.1900166246856291e-16
rhumerus -55.87815946684053 10.44157569711263 -99.56156873673916
rradius 109.35527620289353
rwrist -15.125718576545498
rhand -15.744408731968985 38.57029200999619
rfingers 7.125019999999999
rthumb 10.506672893125613 8.454798541239127
73
root 0.5319673021268088 17.55669838710328 26.572811985473766 1.5998752058296284 -0.2570022857307557 -0.2063455057634389
lfemur -8.056706435656103 1.1667263995547985 -25.85804617370884
ltibia 38.47943907092715
lfoot -0.6670476018015488 -8.572906567330604
ltoes -11.446633223295382
rfemur -33.00440898863167 1.8980561056288168 25.162395227311656
rtibia 75.72788762346363
rfoot 1.9489664857983438 -4.893595333059216
rtoes -1.3099005014882583
lowerback 14.36224235792614 -0.3050694543190252 -0.7297260784923312
upperback -1.0381237055616395 -0.4656299045198069 0.9431936754466523
thorax -9.256616092508557 0.13970584608539505 1.7016730105590976
lowerneck -20.13375972759397 -3.697975181977684 -2.549448157062264
upperneck 12.93019469796151 -5.119889525469139 5.455008374256902
head 7.369173702154736 -2.3737269537516013 1.4977034580989415
lclavicle 2.9801515526439752e-15 1.1900897868484632e-16
lhumerus -41.29247993210924 -14.332397450844212 95.69469372679907
lradius 116.50323515498222
lwrist 34.51043325553543
lhand -20.761130640252315 2.7402056380471707
lfingers 7.125019999999999
lthumb 5.312300804835439 32.587421497978305
rclavicle 2.9801381671163078e-15 1.1900166246856291e-16
rhumerus -56.85574243847113 10.427891692384668 -99.33988130685931
rradius 109.583398008036
rwrist -15.161430446887358
rhand -15.724650104025352 38.566156532578354
rfingers 7.125019999999999
rthumb 10.576250872603477 8.536191430057592
74
root 0.5506870042764267 17.687652560387942 27.428653936413124 1.8321118909932523 -0.9997556273511807 -0.3849880869396556
lfemur -8.606671308533873 1.2592364176626192 -25.823607791065022
ltibia 36.235725977378465
lfoot 0.21670001478896905 -8.260390274297457
ltoes -10.639319835743331
rfemur -32.34116607906083 2.6225528036235466 25.596849676971544
rtibia 67.93340959090511
rfoot 1.7086558024008225 -4.540975780858461
rtoes -1.2369284988329365
lowerback 13.987716926657246 -0.4624888773052721 -0.693851776863236
upperback -1.2162472515745189 -0.6706674962500636 1.1326467852638993
thorax -9.266686737431602 0.04589912258352569 1.6594660424539898
lowerneck -20.054961706102546 -3.6177379831093033 -2.5837125911918024
upperneck 13.079529517074471 -4.967122141776342 5.347037268356383
head 7.380091972740221 -2.347521548786636 1.4963644155982538
lclavicle 2.9801515526439752e-15 1.1900897868484632e-16
lhumerus -41.66872230884167 -14.39377209422965 95.60341584064004
lradius 115.910475933608
lwrist 34.42111207147263
lhand -20.66865875852612 2.8283114646916236
lfingers 7.125019999999999
lthumb 5.375261107055037 32.55630531747367
rclavicle 2.9801381671163078e-15 1.1900166246856291e-16
rhumerus -57.78336239037097 10.289785603059366 -99.05908493667901
rradius 109.60829662325014
rwrist -15.202536135561129
rhand -15.74589788813704 38.51770200116661
rfingers 7.125019999999999
rthumb 10.559072813801595 8.493395105142993
